<svg xmlns="http://www.w3.org/2000/svg" width="203.586" height="358" viewBox="0 0 203.586 358">
  <g id="LOGO" transform="translate(-1627.167 -825.595)">
    <g id="Groupe_10" data-name="Groupe 10">
      <path id="Tracé_3" data-name="Tracé 3" d="M1776.155,1156.288q2.119-19,4.223-38.006c1.169-10.551,2.274-21.109,3.544-31.648a12.357,12.357,0,0,1,1.735-4.957c3.323-5.437,6.912-10.711,10.282-16.12q10.386-16.672,20.607-33.447a4.8,4.8,0,0,0,.545-3.1c-2.627-14.3-5.548-28.559-7.963-42.9-1.386-8.227-1.938-16.592-2.987-24.879a7.4,7.4,0,0,0-1.548-3.657c-7.325-9.247-14.751-18.414-22.123-27.625-2.25-2.811-4.282-5.808-6.661-8.5-3.825-4.333-1.781-8.541,2.042-10.779,2.73-1.6,5.78-2.64,8.6-4.107a4.226,4.226,0,0,0,2.056-2.272q3.69-14.369,7.066-28.815a4.666,4.666,0,0,0-.954-3.433q-12.794-16.017-25.693-31.948H1641.667v329h144.8q-3.818-3.093-7.627-6.193A7,7,0,0,1,1776.155,1156.288Z" fill="none"/>
    </g>
    <g id="Groupe_11" data-name="Groupe 11">
      <path id="Tracé_4" data-name="Tracé 4" d="M1627.667,1183.095v-357h130.391c-.073-.165-.131-.333-.195-.5h-130.7v358h176.868c-.2-.167-.409-.331-.61-.5Z" fill="none"/>
    </g>
    <g id="Groupe_12" data-name="Groupe 12">
      <path id="Tracé_5" data-name="Tracé 5" d="M1793.269,1122.312c1.123-10.424,2.167-20.857,3.365-31.272a11.835,11.835,0,0,1,1.579-4.787c9.942-15.913,19.8-31.885,30.111-47.557,2.8-4.257,2.785-8.193,1.905-12.7-2.838-14.53-5.736-29.05-8.273-43.633a140.7,140.7,0,0,1-2.2-20.535c-.151-6.081-2.808-10.524-6.5-14.933-7.2-8.587-14.108-17.414-21.132-26.146-.369-.458-.69-.954-1.181-1.639,1.563-.79,2.955-1.594,4.425-2.214a8.956,8.956,0,0,0,5.887-7.481c.378-2.7,1.078-5.358,1.722-8.014,2.125-8.76,4.24-17.522,6.464-26.257a8.574,8.574,0,0,0-1.715-8.169q-10.893-13.407-21.7-26.884-5.616-6.994-11.216-14H1627.667v357h196.2a80.257,80.257,0,0,0-7.739-6.891q-4.343-3.559-8.693-7.109c-5.375-4.4-10.746-8.795-16.069-13.252a4.317,4.317,0,0,1-1.337-3.215C1791.008,1142.513,1792.181,1132.417,1793.269,1122.312Zm-14.429,40.59q3.805,3.105,7.627,6.193h-144.8v-329h127.254q12.888,15.941,25.693,31.948a4.666,4.666,0,0,1,.954,3.433q-3.346,14.451-7.066,28.815a4.226,4.226,0,0,1-2.056,2.272c-2.815,1.467-5.865,2.509-8.6,4.107-3.823,2.238-5.867,6.446-2.042,10.779,2.379,2.7,4.411,5.692,6.661,8.5,7.372,9.211,14.8,18.378,22.123,27.625a7.4,7.4,0,0,1,1.548,3.657c1.049,8.287,1.6,16.652,2.987,24.879,2.415,14.339,5.336,28.593,7.963,42.9a4.8,4.8,0,0,1-.545,3.1q-10.221,16.773-20.607,33.447c-3.37,5.409-6.959,10.683-10.282,16.12a12.357,12.357,0,0,0-1.735,4.957c-1.27,10.539-2.375,21.1-3.544,31.648q-2.1,19-4.223,38.006A7,7,0,0,0,1778.84,1162.9Z" fill="#fff"/>
    </g>
    <g id="Groupe_13" data-name="Groupe 13">
      <path id="Tracé_6" data-name="Tracé 6" d="M1703.651,1145.312a1.414,1.414,0,0,1-1.042.428h-33.761v11.336a1.417,1.417,0,0,1-.429,1.042,1.492,1.492,0,0,1-1.1.429h-4.595a1.551,1.551,0,0,1-1.1-.4,1.393,1.393,0,0,1-.429-1.072v-31.311a1.469,1.469,0,0,1,1.532-1.532h4.595a1.47,1.47,0,0,1,1.533,1.532v11.275h33.761a1.474,1.474,0,0,1,1.042.4,1.391,1.391,0,0,1,.429,1.072v5.76A1.414,1.414,0,0,1,1703.651,1145.312Z" fill="#fff"/>
      <path id="Tracé_7" data-name="Tracé 7" d="M1703.651,1117.617a1.415,1.415,0,0,1-1.042.429H1662.72a1.552,1.552,0,0,1-1.1-.4,1.392,1.392,0,0,1-.429-1.072v-5.637a1.469,1.469,0,0,1,1.532-1.532h15.748v-17.892H1662.72a1.494,1.494,0,0,1-1.1-.429,1.42,1.42,0,0,1-.429-1.041v-5.7a1.4,1.4,0,0,1,.429-1.073,1.564,1.564,0,0,1,1.1-.4h39.889a1.479,1.479,0,0,1,1.042.4,1.393,1.393,0,0,1,.429,1.073v5.7a1.465,1.465,0,0,1-1.471,1.47h-16.36v17.892h16.36a1.419,1.419,0,0,1,1.042.429,1.49,1.49,0,0,1,.429,1.1v5.637A1.412,1.412,0,0,1,1703.651,1117.617Z" fill="#fff"/>
      <path id="Tracé_8" data-name="Tracé 8" d="M1703.713,1076.869a1.249,1.249,0,0,1-.92.368l-.551-.123-39.522-14.706a2.208,2.208,0,0,1-1.532-2.2v-6.74a2.211,2.211,0,0,1,1.532-2.206l39.522-14.706.551-.122a1.2,1.2,0,0,1,.92.4,1.28,1.28,0,0,1,.367.889v5.453a1.775,1.775,0,0,1-1.164,1.776l-7.414,2.819V1065.9l7.414,2.819a1.776,1.776,0,0,1,1.164,1.777v5.453A1.247,1.247,0,0,1,1703.713,1076.869Zm-15.319-13.112v-13.849l-18.873,6.925Z" fill="#fff"/>
      <path id="Tracé_9" data-name="Tracé 9" d="M1703.651,1030.363a1.412,1.412,0,0,1-1.042.43h-39.95a1.39,1.39,0,0,1-1.072-.43,1.472,1.472,0,0,1-.4-1.041v-5.883a1.373,1.373,0,0,1,1.471-1.47h39.95a1.478,1.478,0,0,1,1.042.4,1.392,1.392,0,0,1,.429,1.072v5.883A1.412,1.412,0,0,1,1703.651,1030.363Z" fill="#fff"/>
      <path id="Tracé_10" data-name="Tracé 10" d="M1703.651,1011.982a1.411,1.411,0,0,1-1.042.429h-39.95a1.389,1.389,0,0,1-1.072-.429,1.471,1.471,0,0,1-.4-1.042v-5.759a1.373,1.373,0,0,1,1.471-1.471h34.069V984.286a1.5,1.5,0,0,1,.428-1.1,1.42,1.42,0,0,1,1.042-.429h4.411a1.415,1.415,0,0,1,1.042.429,1.489,1.489,0,0,1,.429,1.1v26.654A1.411,1.411,0,0,1,1703.651,1011.982Z" fill="#fff"/>
      <path id="Tracé_11" data-name="Tracé 11" d="M1703.713,980.365a1.248,1.248,0,0,1-.92.367l-.551-.122L1662.72,965.9a2.21,2.21,0,0,1-1.532-2.206v-6.74a2.212,2.212,0,0,1,1.532-2.206l39.522-14.706.551-.122a1.2,1.2,0,0,1,.92.4,1.28,1.28,0,0,1,.367.889v5.453a1.775,1.775,0,0,1-1.164,1.777l-7.414,2.819V969.4l7.414,2.819a1.776,1.776,0,0,1,1.164,1.776v5.454A1.247,1.247,0,0,1,1703.713,980.365Zm-15.319-13.112V953.4l-18.873,6.924Z" fill="#fff"/>
      <path id="Tracé_12" data-name="Tracé 12" d="M1703.651,933.858a1.412,1.412,0,0,1-1.042.43H1662.72a1.556,1.556,0,0,1-1.1-.4,1.394,1.394,0,0,1-.429-1.072v-4.779a1.95,1.95,0,0,1,1.041-1.777l27.207-17.525H1662.72a1.555,1.555,0,0,1-1.1-.4,1.394,1.394,0,0,1-.429-1.072V902a1.469,1.469,0,0,1,1.532-1.532h39.828a1.494,1.494,0,0,1,1.1.429,1.416,1.416,0,0,1,.429,1.042v4.84a2,2,0,0,1-1.042,1.839l-26.593,17.463h26.164a1.474,1.474,0,0,1,1.042.4,1.39,1.39,0,0,1,.429,1.072v5.27A1.41,1.41,0,0,1,1703.651,933.858Z" fill="#fff"/>
      <path id="Tracé_13" data-name="Tracé 13" d="M1703.651,890.539a1.415,1.415,0,0,1-1.042.429H1662.72a1.556,1.556,0,0,1-1.1-.4,1.394,1.394,0,0,1-.429-1.072V874.546q0-18.075,16.666-18.443,3.556-.123,4.78-.123,1.164,0,4.719.123,8.578.246,12.652,4.626t4.075,13.511V889.5A1.414,1.414,0,0,1,1703.651,890.539Zm-6.678-15.993q0-5.085-2.268-7.353t-7.537-2.389q-3.675-.123-4.595-.123-.979,0-4.534.123-5.025.123-7.384,2.512t-2.359,7.537v7.475h28.677Z" fill="#fff"/>
    </g>
    <g id="Groupe_14" data-name="Groupe 14">
      <path id="Tracé_14" data-name="Tracé 14" d="M1746.758,1041.259a.882.882,0,0,1-.648.266h-24.8a.97.97,0,0,1-.686-.248.867.867,0,0,1-.267-.667v-9.294q0-11.237,10.362-11.464,2.208-.076,2.97-.077.725,0,2.934.077,5.333.152,7.865,2.875t2.533,8.4v9.484A.882.882,0,0,1,1746.758,1041.259Zm-4.153-9.943q0-3.161-1.409-4.571t-4.684-1.485q-2.287-.077-2.858-.076-.609,0-2.818.076a5.389,5.389,0,0,0-6.057,6.247v4.647H1742.6Z" fill="#fff"/>
      <path id="Tracé_15" data-name="Tracé 15" d="M1746.758,1014.481a.883.883,0,0,1-.648.267h-24.836a.865.865,0,0,1-.666-.267.916.916,0,0,1-.248-.648v-3.656a.853.853,0,0,1,.914-.914h24.836a.923.923,0,0,1,.648.247.866.866,0,0,1,.266.667v3.656A.878.878,0,0,1,1746.758,1014.481Z" fill="#fff"/>
      <path id="Tracé_16" data-name="Tracé 16" d="M1746.377,999.893a8.719,8.719,0,0,1-2.7,3.7,6.393,6.393,0,0,1-3.657,1.333.8.8,0,0,1-.553-.229.746.746,0,0,1-.247-.571v-3.467a1.149,1.149,0,0,1,.19-.685,2.019,2.019,0,0,1,.533-.495,3.893,3.893,0,0,0,2.171-1.734,6.767,6.767,0,0,0,.876-3.714,7.34,7.34,0,0,0-.894-4.018,2.8,2.8,0,0,0-2.457-1.352,2.325,2.325,0,0,0-1.714.686,5.716,5.716,0,0,0-1.2,2.075q-.514,1.392-1.239,4.133a16.2,16.2,0,0,1-2.818,6.59,6.185,6.185,0,0,1-5.028,2.095,6.694,6.694,0,0,1-3.943-1.218,8.1,8.1,0,0,1-2.723-3.486,13.081,13.081,0,0,1-.991-5.276,12.541,12.541,0,0,1,1.1-5.466,9.022,9.022,0,0,1,2.762-3.5,6.1,6.1,0,0,1,3.3-1.276.794.794,0,0,1,.552.228.746.746,0,0,1,.247.572v3.618a1.136,1.136,0,0,1-.685,1.143,2.949,2.949,0,0,0-2.038,1.486,6.914,6.914,0,0,0-.019,6.494,2.62,2.62,0,0,0,2.323,1.2,2.485,2.485,0,0,0,1.714-.609,4.965,4.965,0,0,0,1.2-1.9,34.811,34.811,0,0,0,1.162-3.771,26.209,26.209,0,0,1,1.714-5.39,7.021,7.021,0,0,1,2.4-2.952,6.6,6.6,0,0,1,3.695-.952,6.962,6.962,0,0,1,4.285,1.351,8.414,8.414,0,0,1,2.762,3.81,15.692,15.692,0,0,1,.952,5.694A15.052,15.052,0,0,1,1746.377,999.893Z" fill="#fff"/>
      <path id="Tracé_17" data-name="Tracé 17" d="M1744.72,976.676a10.525,10.525,0,0,1-7.637,3.066q-1.031.039-3.353.038-2.361,0-3.427-.038a10.526,10.526,0,0,1-7.6-3.086q-2.723-2.894-2.724-8.113a13.948,13.948,0,0,1,1.163-5.9,9.394,9.394,0,0,1,3.18-3.9,8.265,8.265,0,0,1,4.532-1.466h.077a.646.646,0,0,1,.514.247.835.835,0,0,1,.21.553v3.7a.982.982,0,0,1-.21.685,1.576,1.576,0,0,1-.743.381,5.389,5.389,0,0,0-3.333,1.982,6.462,6.462,0,0,0-.971,3.732q0,5.448,6.1,5.676,1.029.038,3.161.038t3.239-.038q6.093-.23,6.093-5.676a6.486,6.486,0,0,0-.97-3.714,5.349,5.349,0,0,0-3.333-2,1.591,1.591,0,0,1-.744-.381.992.992,0,0,1-.209-.685v-3.7a.843.843,0,0,1,.229-.591.641.641,0,0,1,.571-.209,8.266,8.266,0,0,1,4.533,1.466,9.386,9.386,0,0,1,3.18,3.9,13.933,13.933,0,0,1,1.162,5.9Q1747.405,973.8,1744.72,976.676Z" fill="#fff"/>
      <path id="Tracé_18" data-name="Tracé 18" d="M1744.777,950.564q-2.629,2.9-7.808,3.048-1.105.038-3.239.038-2.171,0-3.275-.038-5.065-.153-7.77-3.124a13.261,13.261,0,0,1,0-16.056q2.7-2.989,7.77-3.141,2.21-.077,3.275-.077,1.029,0,3.239.077,5.18.152,7.808,3.065t2.628,8.095Q1747.405,947.669,1744.777,950.564Zm-3.314-12.15a6.849,6.849,0,0,0-4.685-1.6q-2.286-.075-3.086-.076-.876,0-3.085.076a6.762,6.762,0,0,0-4.666,1.639,5.366,5.366,0,0,0-1.543,4,5.421,5.421,0,0,0,1.543,4.038,6.636,6.636,0,0,0,4.666,1.6q1.105.039,3.085.038,1.943,0,3.086-.038a6.681,6.681,0,0,0,4.666-1.581,6.109,6.109,0,0,0,.019-8.093Z" fill="#fff"/>
      <path id="Tracé_19" data-name="Tracé 19" d="M1745.958,920.777l-24.455,8.151a1.134,1.134,0,0,1-.343.038.781.781,0,0,1-.8-.8v-3.391a1.178,1.178,0,0,1,.267-.8,1.452,1.452,0,0,1,.571-.419l19.5-6.361-19.5-6.4a1.13,1.13,0,0,1-.571-.38,1.177,1.177,0,0,1-.267-.8v-3.428a.8.8,0,0,1,.229-.553.744.744,0,0,1,.571-.247l.343.076,24.455,8.114a1.458,1.458,0,0,1,1.066,1.485v4.228A1.421,1.421,0,0,1,1745.958,920.777Z" fill="#fff"/>
      <path id="Tracé_20" data-name="Tracé 20" d="M1746.758,901.084a.882.882,0,0,1-.648.267h-24.8a.971.971,0,0,1-.686-.248.869.869,0,0,1-.267-.667v-16.8a.914.914,0,0,1,.953-.952h2.552a.863.863,0,0,1,.666.267.961.961,0,0,1,.248.685v12.494h6.666V884.476a.915.915,0,0,1,.952-.952h2.4a.865.865,0,0,1,.667.267.967.967,0,0,1,.247.685v11.656h6.894v-12.8a.964.964,0,0,1,.249-.685.868.868,0,0,1,.667-.267h2.589a.865.865,0,0,1,.666.267.963.963,0,0,1,.248.685v17.1A.878.878,0,0,1,1746.758,901.084Z" fill="#fff"/>
      <path id="Tracé_21" data-name="Tracé 21" d="M1746.758,877.354a.883.883,0,0,1-.648.267h-24.8a.966.966,0,0,1-.686-.248.868.868,0,0,1-.267-.666v-9.866a11.242,11.242,0,0,1,2.172-7.333,7.529,7.529,0,0,1,6.17-2.647,7.887,7.887,0,0,1,4.667,1.333,7.415,7.415,0,0,1,2.723,3.733l9.714-5.523a.949.949,0,0,1,.419-.114.748.748,0,0,1,.571.247.8.8,0,0,1,.228.552v3.505a1.441,1.441,0,0,1-.286.952,2.733,2.733,0,0,1-.742.61l-9.027,4.875v5.219h9.141a.882.882,0,0,1,.648.267.924.924,0,0,1,.266.685v3.5A.879.879,0,0,1,1746.758,877.354Zm-14.132-10.4a5.043,5.043,0,0,0-1.01-3.428,3.728,3.728,0,0,0-2.952-1.143,3.853,3.853,0,0,0-2.99,1.143,4.931,4.931,0,0,0-1.047,3.428v5.295h8Z" fill="#fff"/>
    </g>
  </g>
</svg>
